<svg xmlns="http://www.w3.org/2000/svg" width="20.02" height="20.024" viewBox="0 0 20.02 20.024">
  <path id="cart-icon" d="M166.879,11.789a.634.634,0,0,0-.5-.291l-12.419-.569a.658.658,0,0,0-.669.653.667.667,0,0,0,.614.711l11.578.531-2.276,7.548h-10.13l-1.83-10.59a.674.674,0,0,0-.4-.512l-3-1.252a.631.631,0,0,0-.833.386.7.7,0,0,0,.363.885l2.665,1.113,1.862,10.776a.654.654,0,0,0,.632.559h.309l-.706,2.083a.6.6,0,0,0,.066.52.526.526,0,0,0,.438.242h.495a2.109,2.109,0,0,0-.495,1.365,1.931,1.931,0,1,0,3.854,0,2.109,2.109,0,0,0-.495-1.365h4.2a2.11,2.11,0,0,0-.495,1.365,1.931,1.931,0,1,0,3.854,0,2.11,2.11,0,0,0-.495-1.365h.6a.57.57,0,0,0,0-1.138H153.411l.578-1.707h9.687a.647.647,0,0,0,.611-.474l2.676-8.874A.717.717,0,0,0,166.879,11.789Zm-12.3,15.067a.912.912,0,1,1,.857-.91A.886.886,0,0,1,154.576,26.857Zm7.066,0a.912.912,0,1,1,.857-.91A.886.886,0,0,1,161.642,26.857Z" transform="translate(-146.975 -7.97)"/>
</svg>
