<svg xmlns="http://www.w3.org/2000/svg" width="19.992" height="19.014" viewBox="0 0 19.992 19.014">
  <path id="fav" d="M68.381,10.76a5.245,5.245,0,0,0-7.828,0l-.546.592-.556-.6a5.239,5.239,0,0,0-7.827-.009,6.333,6.333,0,0,0,.009,8.469l7.959,8.61a.538.538,0,0,0,.8,0l7.976-8.6a6.352,6.352,0,0,0,.009-8.473Zm-.814,7.6-7.574,8.161-7.556-8.175a5.028,5.028,0,0,1,0-6.717,4.159,4.159,0,0,1,6.209,0l.957,1.036a.541.541,0,0,0,.81,0l.949-1.027a4.159,4.159,0,0,1,6.209,0,5.04,5.04,0,0,1,0,6.721Z" transform="translate(-50.004 -8.995)" fill="#141414"/>
</svg>
