<svg xmlns="http://www.w3.org/2000/svg" width="15.75" height="10.031" viewBox="0 0 15.75 10.031">
  <defs>
    <style>
      .cls-1 {
        fill: #8a92a5;
        fill-rule: evenodd;
      }
    </style>
  </defs>
  <path id="icon-view" class="cls-1" d="M540.774,310.694c-0.141-.193-3.493-4.71-7.774-4.71s-7.634,4.517-7.774,4.71a0.516,0.516,0,0,0,0,.612c0.14,0.192,3.493,4.709,7.774,4.709s7.633-4.517,7.774-4.709A0.516,0.516,0,0,0,540.774,310.694ZM533,314.978c-3.154,0-5.885-3-6.694-3.979,0.808-.98,3.533-3.977,6.694-3.977s5.885,3,6.694,3.978C538.886,311.981,536.16,314.978,533,314.978Zm0-7.091A3.113,3.113,0,1,0,536.115,311,3.117,3.117,0,0,0,533,307.887Zm0,5.188A2.076,2.076,0,1,1,535.077,311,2.079,2.079,0,0,1,533,313.075Z" transform="translate(-525.125 -305.969)"/>
</svg>
